# xmcd CD database file
#
# Track frame offsets:
#	150
#	21733
#	36819
#	53685
#	64668
#	77570
#	99415
#	116837
#	128794
#	144508
#	158185
#	174485
#	191082
#	207788
#	220575
#	235360
#	250659
#	262000
#	276205
#	289396
#	303463
#	322243
#	335189
#
# Disc length: 4612 seconds
#
# Revision: 0
# Processed by: cddbd v1.5.2PL0 Copyright (c) Steve Scherf et al.
# Submitted via: CDex 1.51
#
DISCID=65120217
DTITLE=Various Artist - 09
DYEAR=2007
DGENRE=Country
TTITLE0=Sea Of Cowboy Hat
TTITLE1=Dangerous Man
TTITLE2=Ladies Love Country Boys
TTITLE3=I Need A Break
TTITLE4=Love Is A Rhythm
TTITLE5=Just Be Your Tear
TTITLE6=Pride and Joy
TTITLE7=Stupid Cupid
TTITLE8=Lovers Waltz
TTITLE9=Get Drunk And Be Somebody
TTITLE10=Girls Lie Too
TTITLE11=When You Get Tore Up
TTITLE12=One Step At A Time
TTITLE13=Heaven Away
TTITLE14=Thet's Good
TTITLE15=Before They Cheat
TTITLE16=One Fool On A Stool
TTITLE17=Witsh Doctor
TTITLE18=Don't Fence Me In
TTITLE19=Twistin' The Night Away
TTITLE20=Rattlesnakes Shake
TTITLE21=Rose Garden
TTITLE22=Crazy Little Thing
EXTD=YEAR: 2007
EXTT0=
EXTT1=
EXTT2=
EXTT3=
EXTT4=
EXTT5=
EXTT6=
EXTT7=
EXTT8=
EXTT9=
EXTT10=
EXTT11=
EXTT12=
EXTT13=
EXTT14=
EXTT15=
EXTT16=
EXTT17=
EXTT18=
EXTT19=
EXTT20=
EXTT21=
EXTT22=
PLAYORDER=
